<?xml version="1.0" encoding="utf-8"?>
<!-- Generator: Adobe Illustrator 16.0.0, SVG Export Plug-In . SVG Version: 6.00 Build 0)  -->
<!DOCTYPE svg PUBLIC "-//W3C//DTD SVG 1.1//EN" "http://www.w3.org/Graphics/SVG/1.1/DTD/svg11.dtd">
<svg version="1.1" id="Layer_1" xmlns="http://www.w3.org/2000/svg" xmlns:xlink="http://www.w3.org/1999/xlink" x="0px" y="0px"
	 width="500px" height="500px" viewBox="0 0 500 500" enable-background="new 0 0 500 500" xml:space="preserve">
<g opacity="0.3">
	<path d="M15.577,237.7c0,0,58.685-53.429,117.37-106.859c14.675-13.354,29.35-26.707,43.107-39.226
		c6.923-6.21,13.616-12.213,19.962-17.905c6.369-5.667,12.39-11.026,17.949-15.973c5.578-4.924,10.691-9.438,15.224-13.439
		c4.531-4.002,8.494-7.478,11.775-10.319c6.548-5.7,10.29-8.957,10.29-8.957l0.135,0.148c0,0-3.623,3.389-9.963,9.32
		c-3.163,2.973-7.025,6.56-11.47,10.657c-4.444,4.099-9.458,8.724-14.927,13.769c-5.489,5.023-11.436,10.464-17.726,16.22
		c-6.312,5.731-12.968,11.774-19.854,18.026c-13.861,12.404-28.646,25.636-43.431,38.867
		C74.865,184.938,15.711,237.848,15.711,237.848L15.577,237.7z"/>
</g>
<g opacity="0.3">
	<path d="M15.577,337.883c0,0,87.146-79.112,174.291-158.224c10.891-9.892,21.781-19.784,32.502-29.521
		c10.74-9.716,21.309-19.278,31.537-28.531c10.251-9.229,20.107-18.207,29.548-26.618c9.427-8.427,18.338-16.394,26.564-23.748
		c8.246-7.332,15.806-14.053,22.506-20.011c6.715-5.941,12.568-11.121,17.39-15.386c9.661-8.509,15.182-13.371,15.182-13.371
		l0.135,0.148c0,0-5.402,4.994-14.854,13.734c-4.736,4.359-10.488,9.652-17.085,15.724c-6.611,6.056-14.071,12.887-22.209,20.34
		c-8.157,7.431-16.994,15.48-26.341,23.995c-9.333,8.53-19.273,17.417-29.502,26.669c-10.251,9.228-20.845,18.763-31.608,28.452
		c-10.783,9.668-21.737,19.489-32.692,29.311C103.326,259.438,15.711,338.031,15.711,338.031L15.577,337.883z"/>
</g>
<g opacity="0.2">
	<path d="M15.577,433.822c0,0,115.605-104.795,231.211-209.59c14.448-13.102,28.896-26.204,43.119-39.102
		c14.241-12.876,28.257-25.548,41.82-37.811c13.586-12.238,26.667-24.126,39.164-35.295c12.483-11.186,24.286-21.761,35.181-31.523
		c10.914-9.74,20.919-18.668,29.787-26.582c8.883-7.897,16.626-14.782,23.004-20.452c12.774-11.318,20.073-17.785,20.073-17.785
		l0.135,0.148c0,0-7.181,6.6-19.746,18.148c-6.293,5.764-13.935,12.763-22.699,20.791c-8.779,8.011-18.685,17.05-29.49,26.911
		c-10.825,9.838-22.553,20.497-34.957,31.77c-12.391,11.289-25.554,23.084-39.118,35.347
		c-13.587,12.237-27.626,24.883-41.892,37.732c-14.285,12.828-28.797,25.859-43.309,38.891
		C131.786,329.695,15.711,433.971,15.711,433.971L15.577,433.822z"/>
</g>
<g opacity="0.2">
	<path d="M479.071,118.986c0,0-101.435,92.006-202.869,184.012c-12.677,11.504-25.353,23.008-37.832,34.331
		c-12.498,11.303-24.797,22.426-36.7,33.19c-11.925,10.739-23.401,21.179-34.376,30.975c-10.961,9.812-21.324,19.088-30.89,27.651
		c-9.586,8.541-18.373,16.37-26.161,23.31c-7.803,6.923-14.606,12.959-20.208,17.93c-11.224,9.919-17.638,15.587-17.638,15.587
		l-0.134-0.148c0,0,6.294-5.8,17.311-15.95c5.518-5.064,12.218-11.214,19.903-18.268c7.7-7.038,16.388-14.978,25.865-23.639
		c9.497-8.64,19.785-17.999,30.667-27.898c10.868-9.915,22.426-20.263,34.33-31.026c11.926-10.738,24.25-21.835,36.771-33.111
		c12.542-11.254,25.282-22.687,38.022-34.12c101.903-91.486,203.806-182.973,203.806-182.973L479.071,118.986z"/>
</g>
<g opacity="0.3">
	<path d="M479.423,224.9c0,0-72.048,65.488-144.096,130.976c-9.003,8.188-18.007,16.378-26.869,24.438
		c-8.883,8.039-17.623,15.951-26.083,23.607c-8.48,7.633-16.628,15.067-24.446,22.015c-7.804,6.964-15.183,13.547-21.994,19.624
		c-6.831,6.055-13.092,11.604-18.642,16.524c-5.565,4.903-10.417,9.178-14.412,12.698c-8.01,7.019-12.587,11.029-12.587,11.029
		l-0.134-0.148c0,0,4.458-4.143,12.259-11.393c3.911-3.614,8.66-8.003,14.106-13.036c5.461-5.018,11.624-10.679,18.346-16.854
		c6.742-6.153,14.045-12.819,21.771-19.87c7.711-7.066,15.94-14.409,24.4-22.065c8.481-7.631,17.246-15.517,26.152-23.529
		c8.926-7.991,17.993-16.109,27.06-24.228c72.517-64.969,145.033-129.937,145.033-129.937L479.423,224.9z"/>
</g>
<g opacity="0.1">
	<path d="M479.071,341.427c0,0-39.722,36.316-79.443,72.634c-9.935,9.075-19.868,18.15-29.182,26.658
		c-4.702,4.202-9.213,8.305-13.555,12.123c-4.332,3.829-8.427,7.45-12.208,10.792c-3.8,3.32-7.283,6.363-10.371,9.062
		c-3.088,2.697-5.79,5.037-8.029,6.948c-4.478,3.825-7.036,6.011-7.036,6.011l-0.135-0.148c0,0,2.437-2.321,6.699-6.384
		c2.13-2.033,4.734-4.481,7.734-7.277c2.999-2.795,6.383-5.949,10.074-9.39c3.712-3.419,7.732-7.122,11.984-11.039
		c4.243-3.928,8.785-7.995,13.447-12.243c9.416-8.394,19.46-17.348,29.504-26.301c40.19-35.797,80.381-71.594,80.381-71.594
		L479.071,341.427z"/>
</g>
<g opacity="0.1">
	<path d="M129.551,29.839c0,0-7.011,6.462-17.528,16.154c-10.535,9.673-24.582,22.569-38.629,35.466
		c-7.023,6.448-14.046,12.897-20.631,18.942c-3.338,2.971-6.53,5.883-9.621,8.573c-3.081,2.701-5.994,5.254-8.683,7.611
		c-2.684,2.362-5.194,4.473-7.393,6.373c-2.201,1.897-4.13,3.54-5.733,4.876c-3.188,2.693-5.035,4.205-5.035,4.205l-0.134-0.148
		c0,0,1.692-1.683,4.697-4.579c1.494-1.458,3.325-3.208,5.438-5.204c2.115-1.993,4.471-4.273,7.096-6.702
		c2.62-2.434,5.458-5.07,8.46-7.858c2.992-2.799,6.215-5.676,9.512-8.693c6.688-5.931,13.821-12.258,20.954-18.584
		c14.266-12.653,28.532-25.307,39.232-34.797c10.718-9.47,17.863-15.783,17.863-15.783L129.551,29.839z"/>
</g>
</svg>
